<?xml version="1.0" encoding="UTF-8"?>
<!DOCTYPE svg PUBLIC "-//W3C//DTD SVG 1.1//EN" "http://www.w3.org/Graphics/SVG/1.1/DTD/svg11.dtd">
<svg xmlns="http://www.w3.org/2000/svg" version="1.1" width="2364px" height="429px" style="shape-rendering:geometricPrecision; text-rendering:geometricPrecision; image-rendering:optimizeQuality; fill-rule:evenodd; clip-rule:evenodd" xmlns:xlink="http://www.w3.org/1999/xlink">
<g><path style="opacity:0.878" fill="#fefffe" d="M 1502.5,116.5 C 1512.1,117.078 1515.1,121.745 1511.5,130.5C 1503.99,135.586 1498.65,133.92 1495.5,125.5C 1496.04,120.977 1498.37,117.977 1502.5,116.5 Z"/></g>
<g><path style="opacity:0.925" fill="#f09b08" d="M 1242.5,117.5 C 1247.17,117.5 1251.83,117.5 1256.5,117.5C 1256.17,131.183 1256.5,144.85 1257.5,158.5C 1262.38,151.91 1267.38,145.41 1272.5,139C 1277.49,138.501 1282.49,138.334 1287.5,138.5C 1287.65,139.552 1287.48,140.552 1287,141.5C 1280.8,148.729 1274.97,156.229 1269.5,164C 1276.29,173.078 1282.96,182.245 1289.5,191.5C 1284.2,192.663 1278.86,192.829 1273.5,192C 1268.12,184.743 1262.62,177.577 1257,170.5C 1256.5,177.826 1256.33,185.159 1256.5,192.5C 1251.83,192.5 1247.17,192.5 1242.5,192.5C 1242.5,167.5 1242.5,142.5 1242.5,117.5 Z"/></g>
<g><path style="opacity:0.912" fill="#f09b08" d="M 749.5,120.5 C 759.085,119.584 768.085,121.417 776.5,126C 777.899,127.062 778.899,128.395 779.5,130C 777.7,133.791 775.2,136.957 772,139.5C 767.067,135.951 761.567,133.951 755.5,133.5C 751.406,133.298 747.906,134.631 745,137.5C 743.707,141.582 744.874,144.749 748.5,147C 757.5,148.664 766.167,151.331 774.5,155C 782.351,161.912 784.518,170.412 781,180.5C 775.682,190.331 767.348,194.997 756,194.5C 747.509,194.085 739.675,191.585 732.5,187C 730.47,185.104 728.803,182.937 727.5,180.5C 729.788,176.544 732.788,173.211 736.5,170.5C 740.132,174.633 744.465,177.8 749.5,180C 753.833,180.667 758.167,180.667 762.5,180C 768.584,175.688 768.917,171.021 763.5,166C 755.013,163.795 746.68,161.129 738.5,158C 728.907,150.146 727.073,140.646 733,129.5C 737.516,124.495 743.016,121.495 749.5,120.5 Z"/></g>
<g><path style="opacity:0.92" fill="#f09b08" d="M 1051.5,121.5 C 1063.5,121.333 1075.5,121.5 1087.5,122C 1097.26,123.257 1102.26,128.757 1102.5,138.5C 1102.83,145.012 1100.16,149.845 1094.5,153C 1107.25,158.69 1111.08,168.19 1106,181.5C 1103.31,187.27 1098.81,190.77 1092.5,192C 1078.84,192.5 1065.17,192.667 1051.5,192.5C 1051.5,168.833 1051.5,145.167 1051.5,121.5 Z M 1066.5,133.5 C 1072.51,133.334 1078.51,133.501 1084.5,134C 1090.08,139.486 1089.75,144.486 1083.5,149C 1077.84,149.499 1072.18,149.666 1066.5,149.5C 1066.5,144.167 1066.5,138.833 1066.5,133.5 Z M 1066.5,161.5 C 1073.51,161.334 1080.51,161.5 1087.5,162C 1091.24,163.8 1092.9,166.8 1092.5,171C 1092.9,175.2 1091.24,178.2 1087.5,180C 1080.51,180.5 1073.51,180.666 1066.5,180.5C 1066.5,174.167 1066.5,167.833 1066.5,161.5 Z"/></g>
<g><path style="opacity:0.921" fill="#fefffe" d="M 1320.5,121.5 C 1336.5,121.5 1352.5,121.5 1368.5,121.5C 1368.5,125.833 1368.5,130.167 1368.5,134.5C 1357.5,134.5 1346.5,134.5 1335.5,134.5C 1335.5,139.5 1335.5,144.5 1335.5,149.5C 1345.17,149.5 1354.83,149.5 1364.5,149.5C 1364.5,153.833 1364.5,158.167 1364.5,162.5C 1354.83,162.5 1345.17,162.5 1335.5,162.5C 1335.5,168.5 1335.5,174.5 1335.5,180.5C 1346.83,180.5 1358.17,180.5 1369.5,180.5C 1369.5,184.5 1369.5,188.5 1369.5,192.5C 1353.17,192.5 1336.83,192.5 1320.5,192.5C 1320.5,168.833 1320.5,145.167 1320.5,121.5 Z"/></g>
<g><path style="opacity:0.894" fill="#f09b08" d="M 971.5,126.5 C 973.167,126.5 974.833,126.5 976.5,126.5C 976.5,130.5 976.5,134.5 976.5,138.5C 981.5,138.5 986.5,138.5 991.5,138.5C 991.5,142.5 991.5,146.5 991.5,150.5C 986.5,150.5 981.5,150.5 976.5,150.5C 976.334,159.839 976.5,169.173 977,178.5C 978.47,180.152 980.303,181.152 982.5,181.5C 985.022,180.238 987.689,179.571 990.5,179.5C 991.091,182.94 992.091,186.273 993.5,189.5C 993.291,190.086 992.957,190.586 992.5,191C 984.377,195.23 976.377,195.23 968.5,191C 965.894,189.062 964.061,186.562 963,183.5C 961.65,172.549 961.15,161.549 961.5,150.5C 958.833,150.5 956.167,150.5 953.5,150.5C 953.5,146.5 953.5,142.5 953.5,138.5C 956.167,138.5 958.833,138.5 961.5,138.5C 961.5,135.167 961.5,131.833 961.5,128.5C 965.04,128.247 968.373,127.581 971.5,126.5 Z"/></g>
<g><path style="opacity:0.915" fill="#fefffe" d="M 1475.5,131.5 C 1489.58,132.072 1490.92,136.906 1479.5,146C 1481.49,147.319 1482.65,149.152 1483,151.5C 1485.71,162.93 1481.54,170.43 1470.5,174C 1466.17,174.333 1461.83,174.667 1457.5,175C 1454.65,175.879 1453.99,177.546 1455.5,180C 1462.44,181.173 1469.44,181.84 1476.5,182C 1488.27,185.243 1492.1,192.743 1488,204.5C 1485.28,209.551 1481.11,212.718 1475.5,214C 1465.41,216.21 1455.41,215.877 1445.5,213C 1437.14,209.253 1434.64,203.087 1438,194.5C 1440.41,192.044 1443.24,190.211 1446.5,189C 1441.54,185.56 1440.38,181.06 1443,175.5C 1445.08,173.877 1447.25,172.377 1449.5,171C 1442.29,166.037 1439.79,159.203 1442,150.5C 1445.89,141.79 1452.73,137.456 1462.5,137.5C 1466.18,138.341 1469.85,138.841 1473.5,139C 1474.87,136.699 1475.53,134.199 1475.5,131.5 Z M 1459.5,148.5 C 1467.6,147.772 1471.1,151.438 1470,159.5C 1467.77,163.861 1464.27,165.361 1459.5,164C 1457.67,163.5 1456.5,162.333 1456,160.5C 1454.59,155.556 1455.76,151.556 1459.5,148.5 Z M 1453.5,193.5 C 1460.24,193.171 1466.91,193.671 1473.5,195C 1475.91,199.387 1474.58,202.387 1469.5,204C 1464.83,204.667 1460.17,204.667 1455.5,204C 1449.84,201.212 1449.17,197.712 1453.5,193.5 Z"/></g>
<g><path style="opacity:0.903" fill="#f09b08" d="M 820.5,137.5 C 836.024,137.857 844.191,145.857 845,161.5C 846.177,171.461 843.844,180.461 838,188.5C 831.238,193.22 823.738,194.72 815.5,193C 812.336,192.008 809.836,190.175 808,187.5C 807.5,196.494 807.334,205.494 807.5,214.5C 802.5,214.5 797.5,214.5 792.5,214.5C 792.5,189.167 792.5,163.833 792.5,138.5C 797.5,138.5 802.5,138.5 807.5,138.5C 807.337,140.857 807.503,143.19 808,145.5C 811.015,140.916 815.182,138.249 820.5,137.5 Z M 814.5,150.5 C 823.063,148.693 828.23,152.026 830,160.5C 831.209,166.886 830.209,172.886 827,178.5C 818.229,183.876 811.896,181.876 808,172.5C 807.333,167.833 807.333,163.167 808,158.5C 809.305,155.039 811.471,152.372 814.5,150.5 Z"/></g>
<g><path style="opacity:0.921" fill="#f09b08" d="M 877.5,137.5 C 896.437,137.604 906.437,147.104 907.5,166C 906.778,183.721 897.612,193.221 880,194.5C 862.945,192.775 854.112,183.275 853.5,166C 853.857,149.826 861.857,140.326 877.5,137.5 Z M 875.5,150.5 C 887.073,148.788 892.739,153.788 892.5,165.5C 891.992,179.54 885.325,184.04 872.5,179C 868.25,171.926 867.417,164.426 870,156.5C 871.36,153.977 873.193,151.977 875.5,150.5 Z"/></g>
<g><path style="opacity:0.904" fill="#f09b08" d="M 1015.5,137.5 C 1023.98,136.932 1031.48,139.265 1038,144.5C 1037.01,148.696 1034.51,152.03 1030.5,154.5C 1025.66,149.702 1019.99,148.369 1013.5,150.5C 1010.56,153.865 1011.23,156.365 1015.5,158C 1022.09,159.23 1028.42,161.23 1034.5,164C 1042.12,171.984 1042.45,180.317 1035.5,189C 1025.1,194.97 1014.43,195.637 1003.5,191C 1000.54,189.039 997.871,186.706 995.5,184C 997.721,180.278 1000.72,177.444 1004.5,175.5C 1010.06,181.391 1016.73,183.224 1024.5,181C 1026.99,178.577 1026.99,176.244 1024.5,174C 1017.72,171.973 1011.06,169.639 1004.5,167C 998.777,162.16 996.943,155.993 999,148.5C 1000.5,144.333 1003.33,141.5 1007.5,140C 1010.31,139.218 1012.98,138.384 1015.5,137.5 Z"/></g>
<g><path style="opacity:0.918" fill="#f09b08" d="M 1140.5,137.5 C 1159.59,137.428 1169.26,146.928 1169.5,166C 1167.04,189.563 1154.38,198.229 1131.5,192C 1120.6,186.881 1115.6,178.214 1116.5,166C 1116.13,149.214 1124.13,139.714 1140.5,137.5 Z M 1138.5,150.5 C 1146.54,148.766 1151.71,151.766 1154,159.5C 1154.84,164.921 1154.51,170.254 1153,175.5C 1151.74,178.428 1149.57,180.261 1146.5,181C 1139.38,182.858 1134.55,180.358 1132,173.5C 1131.14,167.415 1131.47,161.415 1133,155.5C 1134.73,153.598 1136.56,151.931 1138.5,150.5 Z"/></g>
<g><path style="opacity:0.92" fill="#f09b08" d="M 1201.5,137.5 C 1226.04,139.234 1235.54,152.234 1230,176.5C 1223.52,191.491 1212.35,196.991 1196.5,193C 1187.36,190.526 1181.53,184.693 1179,175.5C 1178.33,169.167 1178.33,162.833 1179,156.5C 1182.47,145.187 1189.97,138.854 1201.5,137.5 Z M 1200.5,150.5 C 1206.9,149.053 1211.73,151.053 1215,156.5C 1217.46,164.142 1216.79,171.475 1213,178.5C 1200,184.372 1193.17,180.039 1192.5,165.5C 1192.35,158.785 1195.02,153.785 1200.5,150.5 Z"/></g>
<g><path style="opacity:0.916" fill="#fefffe" d="M 1407.5,137.5 C 1416.37,136.515 1422.87,139.849 1427,147.5C 1428.45,162.428 1428.95,177.428 1428.5,192.5C 1423.83,192.5 1419.17,192.5 1414.5,192.5C 1414.67,180.495 1414.5,168.495 1414,156.5C 1413.03,152.198 1410.37,150.198 1406,150.5C 1400.37,150.467 1396.7,153.134 1395,158.5C 1394.5,169.828 1394.33,181.162 1394.5,192.5C 1389.5,192.5 1384.5,192.5 1379.5,192.5C 1379.5,174.5 1379.5,156.5 1379.5,138.5C 1384.17,138.5 1388.83,138.5 1393.5,138.5C 1393.34,141.187 1393.5,143.854 1394,146.5C 1397.35,141.625 1401.85,138.625 1407.5,137.5 Z"/></g>
<g><path style="opacity:0.916" fill="#fefffe" d="M 1553.5,137.5 C 1562.37,136.515 1568.87,139.849 1573,147.5C 1574.45,162.428 1574.95,177.428 1574.5,192.5C 1569.83,192.5 1565.17,192.5 1560.5,192.5C 1560.67,180.495 1560.5,168.495 1560,156.5C 1559.03,152.198 1556.37,150.198 1552,150.5C 1546.37,150.467 1542.7,153.134 1541,158.5C 1540.5,169.828 1540.33,181.162 1540.5,192.5C 1535.5,192.5 1530.5,192.5 1525.5,192.5C 1525.5,174.5 1525.5,156.5 1525.5,138.5C 1530.17,138.5 1534.83,138.5 1539.5,138.5C 1539.34,141.187 1539.5,143.854 1540,146.5C 1543.35,141.625 1547.85,138.625 1553.5,137.5 Z"/></g>
<g><path style="opacity:0.91" fill="#fefffe" d="M 1608.5,137.5 C 1629.28,137.459 1638.12,147.792 1635,168.5C 1623.58,169.488 1612.08,169.821 1600.5,169.5C 1601.59,179.728 1607.26,183.561 1617.5,181C 1620.32,179.183 1622.82,177.017 1625,174.5C 1628.45,176.287 1631.62,178.454 1634.5,181C 1630.38,190.566 1623.05,194.732 1612.5,193.5C 1594.29,193.456 1585.29,184.289 1585.5,166C 1585.03,149.701 1592.7,140.201 1608.5,137.5 Z M 1607.5,149.5 C 1615.81,147.971 1620.47,151.304 1621.5,159.5C 1614.47,159.83 1607.47,159.497 1600.5,158.5C 1601.75,154.595 1604.08,151.595 1607.5,149.5 Z"/></g>
<g><path style="opacity:0.923" fill="#f09b08" d="M 918.5,138.5 C 923.167,138.5 927.833,138.5 932.5,138.5C 931.582,146.102 932.916,146.935 936.5,141C 940.894,138.626 945.56,137.959 950.5,139C 951.624,139.839 952.291,141.006 952.5,142.5C 952.087,145.566 951.42,148.566 950.5,151.5C 946.487,151.159 942.487,151.659 938.5,153C 936.622,154.543 935.122,156.376 934,158.5C 932.617,169.779 932.117,181.112 932.5,192.5C 927.833,192.5 923.167,192.5 918.5,192.5C 918.5,174.5 918.5,156.5 918.5,138.5 Z"/></g>
<g><path style="opacity:0.945" fill="#fefffe" d="M 1497.5,138.5 C 1502.17,138.5 1506.83,138.5 1511.5,138.5C 1511.5,156.5 1511.5,174.5 1511.5,192.5C 1506.83,192.5 1502.17,192.5 1497.5,192.5C 1497.5,174.5 1497.5,156.5 1497.5,138.5 Z"/></g>
<g><path style="opacity:0.894" fill="#d8d9d8" d="M 998.5,232.5 C 1006.21,232.347 1012.88,234.847 1018.5,240C 1016.64,242.858 1014.47,245.358 1012,247.5C 1006.3,243.028 1000.14,242.028 993.5,244.5C 990.665,247.671 990.998,250.504 994.5,253C 1001.41,254.247 1008.08,256.247 1014.5,259C 1021.21,266.197 1022.04,274.031 1017,282.5C 1014.37,285.231 1011.21,287.064 1007.5,288C 998.102,289.803 989.435,288.136 981.5,283C 980.128,281.758 979.128,280.258 978.5,278.5C 980.117,275.216 982.45,272.549 985.5,270.5C 990.288,276.893 996.621,279.393 1004.5,278C 1008.81,275.427 1009.48,272.094 1006.5,268C 999.349,266.129 992.349,263.795 985.5,261C 983.383,259.269 981.883,257.102 981,254.5C 978.872,240.797 984.705,233.464 998.5,232.5 Z"/></g>
<g><path style="opacity:0.904" fill="#d8d9d8" d="M 1050.5,232.5 C 1063.79,232.645 1072.29,238.979 1076,251.5C 1079.11,264.592 1075.94,275.759 1066.5,285C 1057.31,289.227 1047.98,289.561 1038.5,286C 1032.08,282.33 1028.25,276.83 1027,269.5C 1024.07,256.709 1027.23,245.876 1036.5,237C 1041,234.553 1045.67,233.053 1050.5,232.5 Z M 1046.5,243.5 C 1055.04,241.684 1060.87,244.684 1064,252.5C 1064.67,258.167 1064.67,263.833 1064,269.5C 1059.95,278.074 1053.45,280.574 1044.5,277C 1041.53,274.9 1039.7,272.066 1039,268.5C 1038.33,263.167 1038.33,257.833 1039,252.5C 1040.11,248.234 1042.61,245.234 1046.5,243.5 Z"/></g>
<g><path style="opacity:0.881" fill="#d8d9d8" d="M 1086.5,233.5 C 1098.17,233.5 1109.83,233.5 1121.5,233.5C 1121.5,236.833 1121.5,240.167 1121.5,243.5C 1113.83,243.5 1106.17,243.5 1098.5,243.5C 1098.5,247.833 1098.5,252.167 1098.5,256.5C 1105.5,256.5 1112.5,256.5 1119.5,256.5C 1119.5,259.833 1119.5,263.167 1119.5,266.5C 1112.5,266.5 1105.5,266.5 1098.5,266.5C 1098.5,273.5 1098.5,280.5 1098.5,287.5C 1094.5,287.5 1090.5,287.5 1086.5,287.5C 1086.5,269.5 1086.5,251.5 1086.5,233.5 Z"/></g>
<g><path style="opacity:0.927" fill="#d8d9d8" d="M 1124.5,233.5 C 1138.5,233.5 1152.5,233.5 1166.5,233.5C 1166.5,236.833 1166.5,240.167 1166.5,243.5C 1161.5,243.5 1156.5,243.5 1151.5,243.5C 1151.5,258.167 1151.5,272.833 1151.5,287.5C 1147.83,287.5 1144.17,287.5 1140.5,287.5C 1140.5,272.833 1140.5,258.167 1140.5,243.5C 1135.17,243.5 1129.83,243.5 1124.5,243.5C 1124.5,240.167 1124.5,236.833 1124.5,233.5 Z"/></g>
<g><path style="opacity:0.903" fill="#d8d9d8" d="M 1168.5,233.5 C 1172.5,233.5 1176.5,233.5 1180.5,233.5C 1182.81,245.859 1185.31,258.192 1188,270.5C 1191.64,258.287 1194.8,245.954 1197.5,233.5C 1201.11,233.211 1204.61,233.544 1208,234.5C 1210.84,246.209 1213.84,257.876 1217,269.5C 1220.27,257.661 1223.1,245.661 1225.5,233.5C 1229.17,233.5 1232.83,233.5 1236.5,233.5C 1232.97,251.268 1228.97,268.935 1224.5,286.5C 1220.17,287.833 1215.83,287.833 1211.5,286.5C 1208.79,275.976 1205.62,265.643 1202,255.5C 1199.49,265.876 1196.82,276.209 1194,286.5C 1189.6,287.467 1185.1,287.8 1180.5,287.5C 1176.81,269.427 1172.81,251.427 1168.5,233.5 Z"/></g>
<g><path style="opacity:0.908" fill="#d8d9d8" d="M 1256.5,233.5 C 1261.5,233.5 1266.5,233.5 1271.5,233.5C 1277.2,251.426 1283.2,269.259 1289.5,287C 1285.5,287.667 1281.5,287.667 1277.5,287C 1276.07,283.556 1274.74,280.056 1273.5,276.5C 1266.87,275.503 1260.2,275.17 1253.5,275.5C 1252.5,279.5 1251.5,283.5 1250.5,287.5C 1246.5,287.5 1242.5,287.5 1238.5,287.5C 1244.3,269.438 1250.3,251.438 1256.5,233.5 Z M 1262.5,247.5 C 1263.5,247.47 1264.16,247.97 1264.5,249C 1266.48,254.428 1268.14,259.928 1269.5,265.5C 1265.5,265.5 1261.5,265.5 1257.5,265.5C 1259.17,259.5 1260.83,253.5 1262.5,247.5 Z"/></g>
<g><path style="opacity:0.891" fill="#d8d9d8" d="M 1295.5,233.5 C 1304.51,233.334 1313.51,233.5 1322.5,234C 1328.1,234.541 1331.93,237.374 1334,242.5C 1336.63,251.047 1334.13,257.381 1326.5,261.5C 1327.48,262.981 1328.65,264.315 1330,265.5C 1332.6,272.462 1335.1,279.462 1337.5,286.5C 1333.5,287.833 1329.5,287.833 1325.5,286.5C 1323.43,280.462 1321.27,274.462 1319,268.5C 1315.62,265.987 1311.79,264.987 1307.5,265.5C 1307.5,272.833 1307.5,280.167 1307.5,287.5C 1303.5,287.5 1299.5,287.5 1295.5,287.5C 1295.5,269.5 1295.5,251.5 1295.5,233.5 Z M 1307.5,243.5 C 1311.85,243.334 1316.18,243.501 1320.5,244C 1323.35,246.559 1324.18,249.726 1323,253.5C 1322.1,254.701 1320.93,255.535 1319.5,256C 1315.51,256.499 1311.51,256.666 1307.5,256.5C 1307.5,252.167 1307.5,247.833 1307.5,243.5 Z"/></g>
<g><path style="opacity:0.908" fill="#d8d9d8" d="M 1345.5,233.5 C 1357.83,233.5 1370.17,233.5 1382.5,233.5C 1382.5,236.833 1382.5,240.167 1382.5,243.5C 1374.17,243.5 1365.83,243.5 1357.5,243.5C 1357.5,247.5 1357.5,251.5 1357.5,255.5C 1364.83,255.5 1372.17,255.5 1379.5,255.5C 1379.5,258.5 1379.5,261.5 1379.5,264.5C 1372.17,264.5 1364.83,264.5 1357.5,264.5C 1357.5,269.167 1357.5,273.833 1357.5,278.5C 1365.83,278.5 1374.17,278.5 1382.5,278.5C 1382.5,281.5 1382.5,284.5 1382.5,287.5C 1370.17,287.5 1357.83,287.5 1345.5,287.5C 1345.5,269.5 1345.5,251.5 1345.5,233.5 Z"/></g>
</svg>
